<svg width="1181" height="393" viewBox="0 0 1181 393" fill="none" xmlns="http://www.w3.org/2000/svg">
<path opacity="0.0946098" d="M94.6461 432.268L160.135 304.606C164.192 296.697 163.722 287.189 158.896 279.718L80.921 159.107C76.0676 151.622 67.6017 147.28 58.7184 147.718L-84.7314 154.741C-93.6287 155.207 -101.611 160.344 -105.668 168.253L-171.157 295.915C-175.214 303.824 -174.744 313.332 -169.918 320.803L-91.9432 441.414C-87.1171 448.885 -78.6512 453.228 -69.7406 452.804L73.7093 445.78C82.5925 445.342 90.5889 440.177 94.6461 432.268Z" fill="url(#paint0_linear_604_3)"/>
<path opacity="0.0946098" d="M1028 -39.1457L997.783 101.116C995.911 109.806 998.825 118.868 1005.42 124.835L1111.96 221.155C1118.58 227.129 1127.88 229.133 1136.35 226.41L1273.09 182.498C1281.57 179.746 1287.95 172.717 1289.82 164.028L1320.04 23.766C1321.91 15.0765 1318.99 6.01425 1312.4 0.0470621L1205.86 -96.2729C1199.27 -102.24 1189.97 -104.244 1181.47 -101.528L1044.72 -57.6161C1036.26 -54.8937 1029.87 -47.8353 1028 -39.1457Z" fill="url(#paint1_linear_604_3)"/>
<path opacity="0.0946098" d="M281.138 444.224L312.896 382.316C314.869 378.471 314.64 373.874 312.287 370.256L274.476 311.76C272.123 308.142 268.027 306.04 263.716 306.24L194.147 309.652C189.835 309.852 185.954 312.374 183.996 316.192L152.238 378.1C150.265 381.946 150.495 386.542 152.847 390.16L190.659 448.656C193.011 452.275 197.107 454.376 201.418 454.176L270.988 450.764C275.272 450.55 279.18 448.042 281.138 444.224Z" fill="url(#paint2_linear_604_3)"/>
<path opacity="0.0946098" d="M844.766 -2.42656L830.114 65.5919C829.204 69.8168 830.615 74.1969 833.823 77.083L885.486 123.8C888.695 126.686 893.196 127.656 897.308 126.347L963.624 105.045C967.737 103.736 970.833 100.296 971.736 96.1008L986.389 28.0824C987.299 23.8574 985.888 19.4773 982.679 16.5913L931.016 -30.1257C927.808 -33.0117 923.307 -33.9813 919.194 -32.6724L852.879 -11.3709C848.796 -10.0556 845.67 -6.62152 844.766 -2.42656Z" fill="url(#paint3_linear_604_3)"/>
<path opacity="0.0946098" d="M229.022 276.971L244.075 247.626C245.013 245.798 244.883 243.63 243.802 241.905L225.876 214.175C224.754 212.463 222.815 211.468 220.769 211.556L187.79 213.172C185.745 213.259 183.921 214.46 182.984 216.287L167.93 245.632C166.993 247.459 167.123 249.627 168.204 251.353L186.129 279.082C187.252 280.795 189.191 281.789 191.236 281.702L224.216 280.086C226.248 279.957 228.084 278.798 229.022 276.971Z" fill="url(#paint4_linear_604_3)"/>
<path opacity="0.0946098" d="M938.396 145.639L931.45 177.88C931.018 179.888 931.704 181.948 933.195 183.335L957.687 205.48C959.214 206.844 961.344 207.303 963.297 206.689L994.735 196.593C996.688 195.979 998.138 194.347 998.571 192.34L1005.52 160.098C1005.95 158.091 1005.26 156.03 1003.77 154.643L979.28 132.498C977.753 131.134 975.622 130.675 973.669 131.289L942.232 141.386C940.302 142.036 938.828 143.631 938.396 145.639Z" fill="url(#paint5_linear_604_3)"/>
<defs>
<linearGradient id="paint0_linear_604_3" x1="71.334" y1="150.447" x2="-82.3744" y2="450.083" gradientUnits="userSpaceOnUse">
<stop stop-color="#D4145A"/>
<stop offset="1" stop-color="#2E3192"/>
</linearGradient>
<linearGradient id="paint1_linear_604_3" x1="1123.46" y1="227.039" x2="1194.38" y2="-102.17" gradientUnits="userSpaceOnUse">
<stop stop-color="#D4145A"/>
<stop offset="1" stop-color="#2E3192"/>
</linearGradient>
<linearGradient id="paint2_linear_604_3" x1="269.83" y1="307.506" x2="195.272" y2="452.847" gradientUnits="userSpaceOnUse">
<stop stop-color="#D4145A"/>
<stop offset="1" stop-color="#2E3192"/>
</linearGradient>
<linearGradient id="paint3_linear_604_3" x1="891.075" y1="126.707" x2="925.475" y2="-32.9798" gradientUnits="userSpaceOnUse">
<stop stop-color="#D4145A"/>
<stop offset="1" stop-color="#2E3192"/>
</linearGradient>
<linearGradient id="paint4_linear_604_3" x1="223.662" y1="212.178" x2="188.324" y2="281.064" gradientUnits="userSpaceOnUse">
<stop stop-color="#D4145A"/>
<stop offset="1" stop-color="#2E3192"/>
</linearGradient>
<linearGradient id="paint5_linear_604_3" x1="960.342" y1="206.836" x2="976.647" y2="131.151" gradientUnits="userSpaceOnUse">
<stop stop-color="#D4145A"/>
<stop offset="1" stop-color="#2E3192"/>
</linearGradient>
</defs>
</svg>
